<svg height="512" viewBox="0 0 63 68" width="512" xmlns="http://www.w3.org/2000/svg"><path d="m190.171573 1284-2.585787-2.58579c-.781048-.78105-.781048-2.04737 0-2.82842.781049-.78105 2.047379-.78105 2.828428 0l2.585786 2.58578 2.757359-2.75736c2.343146-2.34314 6.142136-2.34314 8.485282 0l13.343145 13.34315c2.343146 2.34315 2.343146 6.14213 0 8.48528l-21.171572 21.17157c-2.990188 2.99019-7.83824 2.99019-10.828428 0l-1.481428-1.48142c-2.070093-2.0701-2.844126-5.1056-2.018069-7.91419l3.939671-13.39488.85114-9.36254c.127077-1.39785.74021-2.70692 1.732718-3.69943zm9.828427 14c3.313708 0 6-2.68629 6-6s-2.686292-6-6-6-6 2.68629-6 6 2.686292 6 6 6zm-11.031911 4.79652-3.044338 10.35075c-.413029 1.40429-.026012 2.92204 1.009035 3.95709l1.481428 1.48143c1.42809 1.42809 3.743482 1.42809 5.171572 0l5.585787-5.58579zm18.617697-7.21073-5 5c-.781048.78105-.781048 2.04737 0 2.82842.781049.78105 2.047379.78105 2.828428 0l5-5c.781048-.78105.781048-2.04737 0-2.82842-.781049-.78105-2.047379-.78105-2.828428 0zm8.863961-9.20711 19.964467-19.96447c.781048-.78105.781048-2.04737 0-2.82842-.781049-.78105-2.047379-.78105-2.828428 0l-19.964466 19.96446-4.5-4.5 19.964466-19.96446c3.26633-3.26633 8.562098-3.26633 11.828428 0s3.26633 8.56209 0 11.82842l-20.085725 20.08573c-.322344-.48145-.696138-.93866-1.121382-1.3639zm-16.449747 7.62132c-1.104569 0-2-.89543-2-2s.895431-2 2-2 2 .89543 2 2-.895431 2-2 2z" transform="translate(-181 -1256)"/></svg>