<svg height="512" viewBox="0 0 48 48" width="512" xmlns="http://www.w3.org/2000/svg"><g id="Glyph"><g id="Glyph-2" data-name="Glyph"><rect height="6" rx="2.5" width="48" y="42"/><path d="m42.5 41a.5.5 0 0 0 .5-.5v-26a2.5 2.5 0 0 0 -2.5-2.5h-17a2.5 2.5 0 0 0 -2.5 2.5v26a.5.5 0 0 0 .5.5h7v-4a3.5 3.5 0 0 1 7 0v4zm-13-11.5a1 1 0 0 1 -1 1h-3a1 1 0 0 1 -1-1v-3a1 1 0 0 1 1-1h3a1 1 0 0 1 1 1zm0-9a1 1 0 0 1 -1 1h-3a1 1 0 0 1 -1-1v-3a1 1 0 0 1 1-1h3a1 1 0 0 1 1 1zm5-3a1 1 0 0 1 1-1h3a1 1 0 0 1 1 1v3a1 1 0 0 1 -1 1h-3a1 1 0 0 1 -1-1zm0 12v-3a1 1 0 0 1 1-1h3a1 1 0 0 1 1 1v3a1 1 0 0 1 -1 1h-3a1 1 0 0 1 -1-1z"/><path d="m29.5 0h-23a2.5 2.5 0 0 0 -2.5 2.5v38a.5.5 0 0 0 .5.5h15a.5.5 0 0 0 .5-.5v-26a3.5 3.5 0 0 1 3.5-3.5h8a.5.5 0 0 0 .5-.5v-8a2.5 2.5 0 0 0 -2.5-2.5zm-15 38.5a1 1 0 0 1 -1 1h-3a1 1 0 0 1 -1-1v-3a1 1 0 0 1 1-1h3a1 1 0 0 1 1 1zm0-10a1 1 0 0 1 -1 1h-3a1 1 0 0 1 -1-1v-3a1 1 0 0 1 1-1h3a1 1 0 0 1 1 1zm0-10a1 1 0 0 1 -1 1h-3a1 1 0 0 1 -1-1v-3a1 1 0 0 1 1-1h3a1 1 0 0 1 1 1zm0-10a1 1 0 0 1 -1 1h-3a1 1 0 0 1 -1-1v-3a1 1 0 0 1 1-1h3a1 1 0 0 1 1 1zm12 0a1 1 0 0 1 -1 1h-3a1 1 0 0 1 -1-1v-3a1 1 0 0 1 1-1h3a1 1 0 0 1 1 1z"/></g></g></svg>