<svg id="svg14514" height="512" viewBox="0 0 16.933333 16.933334" width="512" xmlns="http://www.w3.org/2000/svg" xmlns:svg="http://www.w3.org/2000/svg"><g id="layer1" transform="translate(0 -280.067)"><path id="path6027" d="m14.368115 280.61081c-.581372 0-1.058852.4749-1.058852 1.05626 0 .58137.47748 1.05886 1.058852 1.05886.581369 0 1.056264-.47749 1.056264-1.05886 0-.58136-.474895-1.05626-1.056264-1.05626zm-1.524974.6196-9.6753762 4.08605c.1628114.10397.3010721.24119.4056592.4036l9.21494-3.89176c-.0054-.0531-.0083-.10679-.0083-.16123 0-.15139.02262-.29765.06304-.43666zm.06511 1.05678-2.9548586 3.34915h.7048656l.438732-.49764 1.414386 1.64951-.0016.005.29559.73794 1.555459-4.27622c-.315097.003-.600599-.1226-.862996-.26303h-.505913l.217043-.24598c-.124714-.13386-.227626-.28833-.300757-.45837zm2.516124.55811c-.152953.13783-.332105.24621-.529167.31677v5.91334h.529167zm-2.414839.67541h.690399l-.243399.67024zm-.569992.0971.639755.9617h-1.488797zm-.672309 1.4888h1.35599l-.404111 1.11052zm-9.3053745.52916c-.4352422 0-.7932341.36006-.7932341.7953 0 .43525.3579919.79272.7932341.79272.4352395-.00001.7947818-.35748.7947818-.79272 0-.43523-.3595423-.79529-.7947818-.7953zm5.5546999.52969c-.4363803 0-.7447866.3695-.791168.76378l.00619-.0336-.4785122 1.91617h-5.349539c-.43516023 0-.79530043.35755-.79530043.79271v1.85364c0 .43516.3601402.79323.79530043.79323h10.8473978c.435232 0 .806165-.3568.793234-.80098v-1.84589c.000125-.0332-.006-.0662-.0181-.0971l-1.058333-2.64686c-.057-.14242-.12132-.29715-.238229-.43719-.116908-.14003-.313544-.25786-.537434-.25786zm.52555 1.05833c.0013-.00001.0024-.00001.0036 0h.794781v2.11718h-1.218521c-.173355-.00009-.2997919-.16408-.255797-.33176l.423746-1.58802c.03018-.11497.133324-.19571.252182-.1974zm1.328083 0h.8474926c.106561.00004.202697.064.243914.16227l1.004073 2.38073c.01347.033.02013.0683.01963.10387v1.05833c-.000529.14531-.118237.26297-.263552.26355h-1.58801c-.08855.00027-.1713656-.0437-.2206576-.1173l-.04289-.0646zm-6.3629192.006c-.1181338.15323-.2682161.27838-.4408012.36846l.2051553.6842h.5508705zm-1.8386478 1.05266h.5296827v-.55656c-.1966225-.0404-.3746977-.12864-.5296827-.2465zm12.9630326 1.32188c-.108836.00023-.206435.0671-.24598.16847l-.529167 1.32188c-.02283.0582-.02429.12269-.0041.1819l.263549.79272c.03581.10884.137604.18226.252182.1819h.527098v.56379c-.464484.11345-.792721.54596-.792721 1.02423 0 .58136.476964 1.05833 1.058333 1.05833s1.058849-.47697 1.058849-1.05833c0-.35287-.529682-.35287-.529682 0 0 .29538-.233778.52916-.529167.52916s-.529167-.23378-.529167-.52916c0-.29539.233778-.52969.529167-.52969.146169-.00052.26411-.11944.263549-.26561v-.79272h.529685c.114388.00014.215911-.0732.251664-.1819l.263549-.79272c.02035-.0592.01905-.1236-.0036-.1819l-.529683-1.32188c-.03954-.1014-.137144-.16824-.24598-.16847zm-12.7031006.262c.1485503-.002.2694199.11914.2676843.26769v.79478c.00778.36048-.5369508.36048-.5291667 0v-.79478c-.00159-.14613.1153583-.26597.2614824-.26769zm1.0567828 0c.1491562-.003.2709916.11852.2692347.26769v.79478c-.00775.34495-.5214223.34495-.5291666 0v-.79478c-.00159-.14553.1144164-.26512.2599319-.26769zm1.0583334 0c.1493573-.003.2715154.11831.2697506.26769v.79478c0 .35312-.5296826.35312-.5296826 0v-.79478c-.00159-.14553.1144164-.26512.259932-.26769zm-1.3172308 2.913c-1.0214821 0-1.85363373.83216-1.85363373 1.85364 0 1.02147.83215163 1.85156 1.85363373 1.85156h8.2010492c1.021479 0 1.851567-.83009 1.851567-1.85156 0-1.02148-.830088-1.85364-1.851567-1.85364zm.5281321 1.05989c.4352396-.00001.7932341.35747.7932341.79272 0 .43524-.3579945.79478-.7932341.79478-.4352396-.00001-.7927154-.35955-.7927154-.79478 0-.43524.3574758-.79272.7927154-.79272zm2.38125 0c.4352291 0 .7947846.35748.7947846.79272 0 .43523-.3595555.79477-.7947846.79478-.4352501 0-.793234-.35954-.793234-.79478 0-.43525.3579839-.79273.793234-.79272zm2.3807345 0c.435239-.00001.794782.35747.794782.79272 0 .43524-.359543.79478-.794782.79478-.4352505 0-.7932344-.35954-.7932344-.79478 0-.43525.3579839-.79273.7932344-.79272zm2.3828006 0c.435239-.00001.792715.35747.792715.79272 0 .43524-.357476.79478-.792715.79478-.4352506 0-.7947846-.35954-.7947846-.79478 0-.43525.359534-.79273.7947846-.79272z" font-variant-ligatures="normal" font-variant-position="normal" font-variant-caps="normal" font-variant-numeric="normal" font-variant-alternates="normal" font-feature-settings="normal" text-indent="0" text-align="start" text-decoration-line="none" text-decoration-style="solid" text-decoration-color="rgb(0,0,0)" text-transform="none" text-orientation="mixed" white-space="normal" shape-padding="0" isolation="auto" mix-blend-mode="normal" solid-color="rgb(0,0,0)" solid-opacity="1" vector-effect="none"/></g></svg>