<svg xmlns="http://www.w3.org/2000/svg" version="1.1" xmlns:xlink="http://www.w3.org/1999/xlink" width="512" height="512" x="0" y="0" viewBox="0 0 64 64" style="enable-background:new 0 0 512 512" xml:space="preserve"><g><path d="M37.687 40.323c-2.473-.644-5.417-1.429-6.174-4.76-.587-3.642.42-7.796 2.884-10.071a12.86 12.86 0 0 0 6.592 1.824c1.983 0 3.968-.457 5.783-1.38 4.052-2.06 6.724-6.171 6.973-10.728a.997.997 0 0 0-.454-.893c-3.828-2.484-8.727-2.744-12.776-.685-3.8 1.933-6.387 5.668-6.899 9.883a13.78 13.78 0 0 0-2.131 2.45c.346-5.014 1.251-8.64 2.247-11.198 2.73-.055 5.307-1.41 6.867-3.674a8.555 8.555 0 0 0 .674-8.496 1 1 0 0 0-.825-.568 8.532 8.532 0 0 0-7.696 3.658c-1.643 2.384-1.936 5.461-.82 8.128-.945 2.363-1.8 5.536-2.255 9.748a17.622 17.622 0 0 0-.908-1.51c.766-4.126-.536-8.417-3.519-11.4-3.215-3.214-7.948-4.482-12.36-3.307a.998.998 0 0 0-.708.708c-1.175 4.41.091 9.146 3.306 12.36a12.831 12.831 0 0 0 9.065 3.739c.977 0 1.96-.131 2.93-.36 1.88 2.707 1.934 5.954 1.9 9.21H23.21c1.655 2.481 2.4 5.212 2.042 7.82-.453 3.3-2.594 5.988-5.873 7.37-2.612 1.104-3.417 3.337-4.269 5.7a28.135 28.135 0 0 1-.721 1.856A27.863 27.863 0 0 0 32 62c5.918 0 11.41-1.85 15.937-4.996-2.44-2.376-5.036-6.151-5.036-11.509 0-3.815-2.3-4.414-5.214-5.172z" fill="#6ce87c" opacity="1" data-original="#000000"></path><path d="M59 33H33.354c-.347 4.027 1.832 4.605 4.836 5.387 2.99.778 6.711 1.747 6.711 7.108 0 4.781 2.464 8.182 4.678 10.278C55.929 50.636 60 42.786 60 34a1 1 0 0 0-1-1zM18.602 46.35c2.612-1.103 4.314-3.217 4.669-5.8.342-2.503-.59-5.184-2.547-7.55H5a1 1 0 0 0-1 1c0 8.015 3.39 15.249 8.806 20.358.139-.359.277-.74.423-1.145.87-2.415 1.953-5.42 5.373-6.863z" fill="#6ce87c" opacity="1" data-original="#000000"></path></g></svg>