<svg clip-rule="evenodd" fill-rule="evenodd" height="512" image-rendering="optimizeQuality" shape-rendering="geometricPrecision" text-rendering="geometricPrecision" viewBox="0 0 1707 1707" width="512" xmlns="http://www.w3.org/2000/svg"><g id="Layer_x0020_1" fill="rgb(0,0,0)"><path d="m800 998c53-59 128-93 209-93 91 0 176 46 228 119-13 8-25 16-37 23l-9 6c-91-50-229-44-322-40-13 0-26 1-39 1-10-6-20-11-30-16z"/><path d="m1009 951c-13 0-23-11-23-23v-368c0-12 10-22 23-22 12 0 22 10 22 22v368c0 12-10 23-22 23z"/><path d="m981 535c-3 0-5-1-8-2-172-60-250-210-232-445 1-8 6-15 14-19 8-3 17-2 24 4 148 127 244 226 224 441 0 7-4 13-10 17-4 2-8 4-12 4z"/><path d="m1009 583c-8 0-16-4-20-11l-28-49c-6-11-3-24 8-31 11-6 25-2 31 9l28 48c6 11 3 25-8 31-4 2-8 3-11 3z"/><path d="m1009 802c-6 0-12-2-17-7l-104-105c-9-8-9-23 0-32s23-9 32 0l105 105c8 9 8 23 0 32-5 5-11 7-16 7z"/><path d="m1139 615c-17 0-36-1-54-3-7 0-14-4-18-10-3-6-4-13-2-20 55-155 182-234 378-234 21 0 44 1 67 3 9 0 16 6 19 14 4 7 2 16-3 23-118 137-208 227-387 227z"/><path d="m1009 658c-8 0-16-4-20-12-6-11-3-25 8-31l78-45c11-6 25-2 31 8 7 11 3 25-8 31l-78 46c-4 2-8 3-11 3z"/><path d="m1009 583c-4 0-8-1-12-3-11-6-14-20-8-31l74-128c6-11 20-15 31-9 11 7 15 21 8 32l-74 128c-4 7-12 11-19 11z"/><g id="_551979248"><path d="m252 1155c14-10 28-19 41-29 158-112 308-218 531-89 13 0 29-1 46-1 109-4 273-10 348 66 17 17 28 37 34 60-77 65-274 89-369 99-7 1-13 8-12 15s7 12 14 12c104-11 331-41 403-131 4-4 7-9 10-14 102-73 237-165 332-137 34 10 59 34 74 73 4 9 1 21-8 27-77 53-145 103-205 148-294 219-443 330-934 200l-97 57z"/><path d="m1213 1067c64-41 153-97 225-80 15 4 28 10 39 19-72 32-143 83-193 118l-4 3-3 5c-2 3-4 7-7 10-7-21-19-40-35-56-7-7-14-13-22-19z"/><path d="m279 1696c-8 0-16-4-20-12l-255-436c-3-5-4-11-3-17 2-6 6-11 11-14l166-97c11-7 25-3 31 8l255 436c4 5 4 12 3 17-2 6-5 11-11 14l-166 98c-4 2-7 3-11 3z"/></g><path d="m1083 455c-4 0-8-1-11-3-6-3-10-9-12-16-33-179 57-321 270-423 7-3 17-2 23 3 7 5 10 13 9 22-36 192-74 325-270 415-3 1-6 2-9 2z"/><path d="m904 697c-1 0-1 0-2 0-182-14-296-139-339-370-1-8 2-17 9-22s16-6 23-2c176 83 294 154 331 364 0 2 1 5 1 7 0 13-10 23-23 23z"/></g></svg>