<svg xmlns="http://www.w3.org/2000/svg" version="1.1" xmlns:xlink="http://www.w3.org/1999/xlink" width="512" height="512" x="0" y="0" viewBox="0 0 32 32" style="enable-background:new 0 0 512 512" xml:space="preserve" class=""><g><path d="M27.964 21H4.036c-.369-5.117 2.122-9.912 6.132-12.339l.845 7.561A1 1 0 1 0 13 16l-.994-8.892a.996.996 0 0 1 .249-.768c.196-.216.476-.34.772-.34h5.946c.295 0 .576.124.771.34a.977.977 0 0 1 .251.751L19 16a.998.998 0 0 0 .883 1.104.998.998 0 0 0 1.104-.883l.845-7.561c4.01 2.428 6.501 7.223 6.132 12.34zM30 24.5c0 .827-.673 1.5-1.5 1.5h-25c-.827 0-1.5-.673-1.5-1.5S2.673 23 3.5 23h25c.827 0 1.5.673 1.5 1.5z" fill="#6de87d" opacity="1" data-original="#000000" class=""></path></g></svg>